HIERARCHY
ROOT Hips
{
	OFFSET 0.000000 0.000000 0.000000 
	CHANNELS 6 Xposition Yposition Zposition Zrotation Yrotation Xrotation
	JOINT LeftUpLeg
	{
		OFFSET 1.363060 -1.794630 0.839290 
		CHANNELS 3 Zrotation Yrotation Xrotation
		JOINT LeftLeg
		{
			OFFSET 2.448110 -6.726130 0.000000 
			CHANNELS 3 Zrotation Yrotation Xrotation
			JOINT LeftFoot
			{
				OFFSET 2.562200 -7.039590 0.000000 
				CHANNELS 3 Zrotation Yrotation Xrotation
				JOINT LeftToeBase
				{
					OFFSET 0.157640 -0.433110 2.322550 
					CHANNELS 3 Zrotation Yrotation Xrotation
					End Site
					{
						OFFSET 0.000000 0.000000 0.000000 
					}
				}
			}
		}
	}
	JOINT RightUpLeg
	{
		OFFSET -1.305520 -1.794630 0.839290 
		CHANNELS 3 Zrotation Yrotation Xrotation
		JOINT RightLeg
		{
			OFFSET -2.542530 -6.985550 0.000000 
			CHANNELS 3 Zrotation Yrotation Xrotation
			JOINT RightFoot
			{
				OFFSET -2.568260 -7.056230 0.000000 
				CHANNELS 3 Zrotation Yrotation Xrotation
				JOINT RightToeBase
				{
					OFFSET -0.164730 -0.452590 2.363150 
					CHANNELS 3 Zrotation Yrotation Xrotation
					End Site
					{
						OFFSET 0.000000 0.000000 0.000000 
					}
				}
			}
		}
	}
	JOINT Spine
	{
		OFFSET 0.028270 2.035590 -0.193380 
		CHANNELS 3 Zrotation Yrotation Xrotation
		JOINT Spine1
		{
			OFFSET 0.056720 2.048850 -0.042750 
			CHANNELS 3 Zrotation Yrotation Xrotation
			JOINT Neck1
			{
				OFFSET -0.054170 1.746240 0.172020 
				CHANNELS 3 Zrotation Yrotation Xrotation
				JOINT Head
				{
					OFFSET 0.104070 1.761360 -0.123970 
					CHANNELS 3 Zrotation Yrotation Xrotation
					End Site
					{
						OFFSET 0.000000 0.000000 0.000000 
					}
				}
			}
			JOINT LeftArm
			{
				OFFSET 3.362410 1.200890 -0.311210 
				CHANNELS 3 Zrotation Yrotation Xrotation
				JOINT LeftForeArm
				{
					OFFSET 4.983000 -0.000000 -0.000000 
					CHANNELS 3 Zrotation Yrotation Xrotation
					JOINT LeftHand
					{
						OFFSET 3.483560 -0.000000 -0.000000 
						CHANNELS 3 Zrotation Yrotation Xrotation
						JOINT LeftHandIndex1
						{
							OFFSET 0.715260 -0.000000 -0.000000 
							CHANNELS 3 Zrotation Yrotation Xrotation
							End Site
							{
								OFFSET 0.000000 0.000000 0.000000 
							}
						}
					}
				}
			}
			JOINT RightArm
			{
				OFFSET -3.136600 1.374050 -0.404650 
				CHANNELS 3 Zrotation Yrotation Xrotation
				JOINT RightForeArm
				{
					OFFSET -5.241900 -0.000000 -0.000000 
					CHANNELS 3 Zrotation Yrotation Xrotation
					JOINT RightHand
					{
						OFFSET -3.444170 -0.000000 -0.000000 
						CHANNELS 3 Zrotation Yrotation Xrotation
						JOINT RightHandIndex1
						{
							OFFSET -0.622530 -0.000000 -0.000000 
							CHANNELS 3 Zrotation Yrotation Xrotation
							End Site
							{
								OFFSET 0.000000 0.000000 0.000000 
							}
						}
					}
				}
			}
		}
	}
}
MOTION
Frames: 5
Frame Time: 0.041667
11.375544 14.230840 17.789501 6.185623 23.726371 113.804718 34.489241 -51.901211 9.372121 -45.795008 -25.245074 -2.574237 19.020053 23.296496 96.302662 0.191300 -2.816900 -7.769500 34.945437 40.404024 -42.646709 -2.147177 36.487258 54.391511 -27.981553 -12.395414 83.116110 -0.001000 -0.208700 0.573300 33.294966 -42.487017 15.981494 15.959081 7.486942 1.531731 4.834643 -6.919413 8.297079 -0.689300 -2.604600 13.129500 24.703226 -23.254776 -63.378879 -4.089733 -32.920403 -20.411062 -10.194844 -4.068347 -8.754162 -7.125000 0.000000 0.000000 -54.091175 -3.456957 -53.553052 -37.057918 16.321784 -21.801801 12.373421 4.559503 -34.095369 7.125000 0.000000 0.000000 
11.371448 14.232157 17.837923 -0.772854 22.109994 119.534529 43.057692 -55.593162 11.500446 -43.018057 -24.662563 10.366737 16.312388 20.583041 102.767405 0.589400 -4.915300 -13.667100 29.112636 53.051517 -48.711906 8.156010 30.880858 51.684397 -20.059599 -10.062667 92.828691 -0.001300 -0.231400 0.635900 34.072240 -38.819034 14.066997 13.721695 6.866296 -1.546864 4.893295 -6.625325 8.112438 -0.780000 -2.486900 13.640200 22.350759 -22.981644 -64.773887 -5.693410 -33.106230 -19.599110 -10.886997 -4.891873 -8.780319 -7.125000 0.000000 0.000000 -55.373890 -2.676556 -52.802060 -40.035983 17.879031 -21.787534 11.839068 4.858541 -35.910140 7.125000 0.000000 0.000000 
11.367498 14.227768 17.843775 -4.938956 18.961910 121.773949 46.560378 -61.649139 13.274957 -35.565083 -25.051393 20.725944 16.187548 19.133873 104.525156 0.516200 -4.605100 -12.785600 18.595642 57.949296 -50.733871 17.391552 24.881000 46.064420 -14.188209 -8.449334 96.999155 0.000000 -0.033100 0.091000 37.739429 -44.521208 18.918689 10.212513 8.317427 -7.345276 4.176815 -6.227591 6.753721 -1.015200 -2.361400 14.094300 22.650135 -25.821895 -66.531897 -4.317274 -37.345593 -18.919942 -11.523062 -5.447765 -8.860106 -7.125000 0.000000 0.000000 -54.595392 -3.279519 -52.041887 -46.612589 15.343495 -21.737326 11.040619 4.837476 -37.785496 7.125000 0.000000 0.000000 
11.363694 14.224696 17.847579 -4.515013 9.993603 122.752908 46.822451 -69.147632 15.219582 -22.006751 -28.719203 31.571278 19.292561 17.798823 102.567637 0.412000 -4.120100 -11.414800 2.773234 55.796563 -52.340744 26.514704 20.744801 37.451906 -10.278152 -6.564974 96.415486 0.000000 -0.031300 0.086000 -18.870671 -55.462347 12.841071 33.189806 15.668529 41.208752 0.783088 -5.693176 4.182201 -1.006000 -2.274300 14.526200 18.571997 -24.834247 -68.374075 -8.702063 -42.129885 -18.196300 -9.773204 -7.037474 -8.810281 -7.125000 0.000000 0.000000 -41.404507 -53.420692 -58.753165 -118.648091 -3.550869 -21.610178 8.226585 3.460046 -39.073817 7.125000 0.000000 0.000000 
11.359452 14.221624 17.854454 -13.005231 6.098020 124.219018 41.337288 -73.432286 9.807790 -4.565017 -35.336293 38.410253 24.197561 17.926289 100.544711 0.372500 -3.919900 -10.851500 -10.308753 50.030276 -54.095173 34.309818 18.449919 28.945610 -7.864527 -5.619441 94.507991 0.000000 0.025900 -0.071100 -28.801742 -18.488309 13.143974 53.984619 1.946852 29.906156 -2.402445 -6.017823 5.512587 -1.085900 -2.178100 14.983900 16.532585 -22.180800 -67.677337 -15.855723 -33.826177 -17.574025 -9.626452 -6.810730 -9.205148 -7.125000 0.000000 0.000000 -50.166655 -40.727209 -60.690557 -146.406490 -0.139436 -21.561384 8.132167 3.396801 -40.374801 7.125000 0.000000 0.000000 
